<?xml version="1.0" encoding="UTF-8"?>
<!DOCTYPE svg PUBLIC "-//W3C//DTD SVG 1.1//EN" "http://www.w3.org/Graphics/SVG/1.1/DTD/svg11.dtd">
<svg xmlns="http://www.w3.org/2000/svg" version="1.1" width="512px" height="512px" style="shape-rendering:geometricPrecision; text-rendering:geometricPrecision; image-rendering:optimizeQuality; fill-rule:evenodd; clip-rule:evenodd" xmlns:xlink="http://www.w3.org/1999/xlink">
<g><path style="opacity:0.995" fill="#4556ee" d="M 511.5,247.5 C 511.5,252.833 511.5,258.167 511.5,263.5C 509.963,266.9 508.13,270.233 506,273.5C 442.833,336.667 379.667,399.833 316.5,463C 308.6,468.212 299.933,469.879 290.5,468C 286.888,466.861 283.554,465.194 280.5,463C 273.333,455.833 266.167,448.667 259,441.5C 251.667,429.833 251.667,418.167 259,406.5C 295.833,369.667 332.667,332.833 369.5,296C 252.833,295.667 136.167,295.333 19.5,295C 9.22067,291.556 2.554,284.722 -0.5,274.5C -0.5,261.5 -0.5,248.5 -0.5,235.5C 3.98611,222.86 12.9861,216.027 26.5,215C 140.167,214.667 253.833,214.333 367.5,214C 331.667,178.167 295.833,142.333 260,106.5C 251.783,94.3595 251.45,82.0261 259,69.5C 266.167,62.3333 273.333,55.1667 280.5,48C 288.4,42.7881 297.067,41.1214 306.5,43C 310.112,44.1395 313.446,45.8061 316.5,48C 379.667,111.167 442.833,174.333 506,237.5C 508.13,240.767 509.963,244.1 511.5,247.5 Z"/></g>
</svg>
